<?xml version="1.0" encoding="utf-8"?>
<!-- Generator: Adobe Illustrator 27.5.0, SVG Export Plug-In . SVG Version: 6.00 Build 0)  -->
<svg version="1.1" id="Layer_1" xmlns="http://www.w3.org/2000/svg" xmlns:xlink="http://www.w3.org/1999/xlink" x="0px" y="0px"
	 viewBox="0 0 1024 1024" style="enable-background:new 0 0 1024 1024;" xml:space="preserve">
<style type="text/css">
	.st0{fill:#089949;}
</style>
<g>
	<path class="st0" d="M495.5,1023.5c-38.7,0-70-31.3-70-70v-209c0-1.8-0.5-3.5-1.3-5l-365.8-634c-12.7-21.6-12.7-48.4,0-70
		C70.8,13.7,94,0.4,119,0.5l0,0l673.6,0.2c25-0.1,48.2,13.2,60.6,35c12.6,21.6,12.7,48.3,0.1,69.9l-50.4,87.6h102.4
		c38.7,0,70,31.4,70,70c0,12.3-3.2,24.3-9.4,35l-256,443c-0.9,1.5-1.3,3.2-1.3,5v155.2c-0.1,29.4-18.4,55.6-46,65.8l-143,52.1
		C511.7,1022,503.6,1023.5,495.5,1023.5z M118.9,60.5c-5.5,0-10,4.5-10,10c0,1.8,0.5,3.5,1.3,5l365.8,634c6.1,10.6,9.4,22.7,9.4,35
		v209c0,5.5,4.5,10,10,10c1.2,0,2.3-0.2,3.4-0.6l143-52.1c3.9-1.4,6.6-5.2,6.6-9.4V746.2c0-12.3,3.2-24.4,9.4-35l256-443
		c2.8-4.8,1.1-10.9-3.7-13.7c-1.5-0.9-3.2-1.3-5-1.3H752.8c-1.3,0.1-2.7,0.1-4,0l-314.1-0.1l131.8,228.4l92.9-160.9
		c8.3-14.4,26.6-19.3,41-11s19.3,26.6,11,41l0,0L609.8,526.5c-8.8,15.5-25.4,25.1-43.3,25l0,0c-17.9,0.1-34.4-9.5-43.3-25L374,268
		c-13.8-23.9-5.6-54.5,18.3-68.3c7.6-4.4,16.2-6.7,25-6.7l0,0l316.1,0.1L801,75.6c2.8-4.8,1.1-10.9-3.7-13.7c-1.5-0.9-3.2-1.3-5-1.3
		L118.9,60.5z"/>
</g>
</svg>
