<?xml version="1.0" encoding="utf-8"?>
<!-- Generator: Adobe Illustrator 27.3.1, SVG Export Plug-In . SVG Version: 6.00 Build 0)  -->
<svg version="1.1" id="Layer_1" xmlns="http://www.w3.org/2000/svg" xmlns:xlink="http://www.w3.org/1999/xlink" x="0px" y="0px"
	 viewBox="0 0 1024 1024" style="enable-background:new 0 0 1024 1024;" xml:space="preserve">
<style type="text/css">
	.st0{fill:#226DB4;}
	.st1{fill:#E42527;}
</style>
<g>
	<g>
		<path class="st0" d="M606.5,1023.8l-479.8-277c-27.8-16-45-45.9-45-77.9v-92.8c0-28.6,13.8-55.8,36.9-72.7L378,314.1l196,113.2
			L327.3,607.4l279.3,161.2L606.5,1023.8L606.5,1023.8z M381.8,385.6L154,551.9c-7.7,5.6-12.3,14.7-12.3,24.2v92.8
			c0,10.7,5.8,20.6,15,26l389.8,225V803.3L270.7,644c-11.8-6.8-19.2-18.9-19.9-32.5s5.4-26.4,16.4-34.5l197.1-143.9L381.8,385.6z"/>
	</g>
	<g>
		<path class="st1" d="M651.9,713.5l-196-113.2l246.6-180L416.2,255V-0.1L897,277.4c27.8,16,45,45.9,45,77.9V456
			c0,28.6-13.8,55.8-36.9,72.7L651.9,713.5z M565.7,594.4l82.4,47.6l221.6-161.8c7.7-5.6,12.3-14.7,12.3-24.2V355.4
			c0-10.7-5.8-20.6-15-26L476.2,103.8v116.6l282.9,163.3l0,0c11.8,6.8,19.2,18.9,20,32.5c0.7,13.6-5.4,26.4-16.3,34.5L565.7,594.4z
			 M729.1,435.6L729.1,435.6L729.1,435.6z"/>
	</g>
</g>
</svg>
