<?xml version="1.0" encoding="utf-8"?>
<!-- Generator: Adobe Illustrator 26.0.3, SVG Export Plug-In . SVG Version: 6.00 Build 0)  -->
<svg version="1.1" id="Layer_1" xmlns="http://www.w3.org/2000/svg" xmlns:xlink="http://www.w3.org/1999/xlink" x="0px" y="0px"
	 viewBox="0 0 1024 1024" style="enable-background:new 0 0 1024 1024;" xml:space="preserve">
<style type="text/css">
	.st0{fill:#089949;}
	.st1{fill:#FFFFFF;}
</style>
<g>
	<g>
		<path class="st0" d="M512,1024c-5.2,0-10.4-1.3-15-4L79.6,779c-9.3-5.4-15-15.3-15-26V271c0-10.7,5.7-20.6,15-26l104.8-60.5
			c14.4-8.3,32.7-3.4,41,11c8.3,14.3,3.4,32.7-11,41l-89.8,51.8v447.3L512,959.3l89-51.4c14.3-8.3,32.7-3.4,41,11
			c8.3,14.3,3.4,32.7-11,41l-104,60C522.4,1022.6,517.2,1024,512,1024z"/>
	</g>
	<g>
		<path class="st0" d="M929.4,783c-5.2,0-10.4-1.3-15-4L497,538c-9.3-5.4-15-15.3-15-26V30c0-10.7,5.7-20.6,15-26
			c9.3-5.4,20.7-5.4,30,0l417.4,241c9.3,5.4,15,15.3,15,26v482c0,10.7-5.7,20.6-15,26C939.7,781.6,934.6,783,929.4,783z M542,494.7
			L899.4,701V288.3L542,82V494.7z"/>
	</g>
	<g>
		<path class="st0" d="M720.7,903.5c-5.2,0-10.4-1.3-15-4l-417.4-241c-9.3-5.4-15-15.3-15-26v-482c0-10.7,5.7-20.6,15-26l104.8-60.5
			c14.4-8.3,32.7-3.4,41,11c8.3,14.3,3.4,32.7-11,41l-89.8,51.8v447.3l387.4,223.7l89.3-51.6c14.3-8.3,32.7-3.4,41,11
			c8.3,14.3,3.4,32.7-11,41l-104.3,60.2C731.1,902.1,725.9,903.5,720.7,903.5z"/>
	</g>
</g>
</svg>
