<?xml version="1.0" encoding="utf-8"?>
<!-- Generator: Adobe Illustrator 27.3.1, SVG Export Plug-In . SVG Version: 6.00 Build 0)  -->
<svg version="1.1" id="Layer_1" xmlns="http://www.w3.org/2000/svg" xmlns:xlink="http://www.w3.org/1999/xlink" x="0px" y="0px"
	 viewBox="0 0 1024 1024" style="enable-background:new 0 0 1024 1024;" xml:space="preserve">
<style type="text/css">
	.st0{fill:#089949;}
	.st1{fill:#F9B21D;}
	.st2{fill:#E42527;}
	.st3{fill:#226DB4;}
</style>
<g>
	<g>
		<circle class="st0" cx="514.9" cy="962" r="60"/>
	</g>
	<g>
		<circle class="st1" cx="186.2" cy="219.6" r="60"/>
	</g>
	<g>
		<circle class="st2" cx="643" cy="609.7" r="60"/>
	</g>
	<g>
		<path class="st3" d="M413.3,928.2c-6.1,0-12.3-1.9-17.7-5.8c-53.4-39-129.7-103.9-190.2-191.3C136.8,632.1,102,525,102,412.9
			c0-30.2,3.3-60.3,9.7-89.6c3.6-16.2,19.6-26.4,35.8-22.8s26.4,19.6,22.8,35.8c-5.5,25-8.3,50.8-8.3,76.6
			c0,99.6,31.2,195.2,92.8,284.1c55.8,80.5,126.6,140.7,176.3,177c13.4,9.8,16.3,28.5,6.5,41.9C431.7,924,422.5,928.2,413.3,928.2z"
			/>
	</g>
	<g>
		<path class="st3" d="M678.8,878.1c-4.4,0-8.8-1-12.9-2.9c-86.6-41.1-178.5-108-245.8-179c-87.3-92.1-133.5-189-133.5-280.2
			c0-60.9,23.7-118.2,66.8-161.3s100.4-66.8,161.3-66.8s118.2,23.7,161.3,66.8c43.3,43.1,67,100.4,67,161.3c0,32.1-5.3,64.8-15.9,97
			c-5.1,15.7-22.1,24.4-37.8,19.2c-15.7-5.1-24.4-22.1-19.2-37.8c8.6-26.2,12.9-52.6,12.9-78.4c0-92.7-75.4-168.2-168.2-168.2
			S346.7,323.3,346.7,416c0,52.7,20.3,136.9,117,238.9c57.9,61,135.2,118.8,210.1,157.3c52.8-48.8,95.6-101.5,127.4-156.8
			c44.1-76.8,66.5-158.4,66.5-242.5c0-94.3-36.7-182.9-103.4-249.5S609.1,60,514.9,60c-86.3,0-169.4,31.5-233.9,88.6
			c-12.4,11-31.4,9.8-42.3-2.6c-11-12.4-9.8-31.4,2.6-42.3C316.7,36.8,413.9,0,514.9,0c55.7,0,109.8,10.9,160.7,32.5
			c49.2,20.8,93.3,50.6,131.2,88.5s67.7,82.1,88.5,131.2c21.5,50.9,32.5,105,32.5,160.7c0,94.7-25.1,186.4-74.5,272.4
			c-38,66.1-90,128.4-154.6,185.3C693.1,875.6,686,878.1,678.8,878.1z"/>
	</g>
</g>
</svg>
