<?xml version="1.0" encoding="utf-8"?>
<!-- Generator: Adobe Illustrator 27.5.0, SVG Export Plug-In . SVG Version: 6.00 Build 0)  -->
<svg version="1.1" id="Layer_1" xmlns="http://www.w3.org/2000/svg" xmlns:xlink="http://www.w3.org/1999/xlink" x="0px" y="0px"
	 viewBox="0 0 1024 1024" style="enable-background:new 0 0 1024 1024;" xml:space="preserve">
<style type="text/css">
	.st0{fill:none;}
	.st1{fill:#089949;enable-background:new    ;}
	.st2{fill:#E42527;enable-background:new    ;}
	.st3{fill:#F9B21D;enable-background:new    ;}
	.st4{fill:#226DB4;enable-background:new    ;}
</style>
<g>
	<path class="st0" d="M451.6,159.1c27.4,0,49.6-22.2,49.5-49.6c0-13.1-5.2-25.7-14.5-35c-9.3-9.3-21.9-14.5-35.1-14.5
		c-27.4,0-49.6,22.2-49.5,49.6S424.2,159.2,451.6,159.1z"/>
	<path class="st0" d="M144.6,537.3c-9.3-9.3-21.9-14.6-35.1-14.5v0c-27.4,0-49.6,22.2-49.6,49.6c0,27.4,22.2,49.6,49.6,49.6
		c27.4,0,49.6-22.2,49.6-49.6v-0.1C159.2,559.2,153.9,546.6,144.6,537.3z"/>
	<path class="st0" d="M572.5,864.9L572.5,864.9c-27.4,0-49.6,22.2-49.5,49.6c0,27.4,22.2,49.6,49.6,49.5c27.4,0,49.6-22.2,49.5-49.6
		c0-13.1-5.2-25.7-14.5-35C598.3,870.1,585.7,864.8,572.5,864.9z"/>
	<path class="st0" d="M914.5,401.8c-27.4,0-49.6,22.2-49.6,49.6s22.2,49.6,49.6,49.6c13.2,0,25.8-5.2,35.1-14.5
		c19.4-19.4,19.4-50.8,0-70.2C940.2,407,927.6,401.8,914.5,401.8z"/>
	<path class="st1" d="M249.9,219.2h363.7c38.6,0,70,31.4,70,70v303.2c0,16.6,13.4,30,30,30s30-13.4,30-30V289.2
		c-0.1-71.8-58.2-129.9-130-130h-64.3C570.2,118,563.5,66.4,529,32c-20.5-20.5-48.4-32.1-77.4-32.1C391-0.1,342,49,341.9,109.5
		c0,17.9,4.3,34.8,11.9,49.7H249.9c-16.6,0-30,13.4-30,30S233.3,219.2,249.9,219.2z M451.5,60c13.2,0,25.8,5.2,35.1,14.5
		c9.3,9.3,14.5,21.9,14.5,35c0,27.4-22.2,49.6-49.5,49.6S402,137,402,109.6S424.1,60,451.5,60z"/>
	<path class="st2" d="M289.2,340.4h304.3c16.6,0,30-13.4,30-30s-13.4-30-30-30H289.2c-71.8,0.1-129.9,58.2-130,130v64.2
		c-14.9-7.6-31.7-11.8-49.6-11.8C49,462.8,0,511.9,0,572.4C0,632.9,49,682,109.5,682c17.4,0,34.4-4.1,49.6-11.8v103.6
		c0,16.6,13.4,30,30,30s30-13.4,30-30V572.6c0-0.1,0-0.1,0-0.2s0-0.1,0-0.2V410.4C219.2,371.8,250.5,340.4,289.2,340.4z M109.6,622
		c-27.4,0-49.6-22.2-49.6-49.6c0-27.4,22.2-49.6,49.6-49.6v0c13.2,0,25.8,5.2,35.1,14.5c9.3,9.3,14.5,21.9,14.5,35v0.1
		C159.1,599.8,136.9,622,109.6,622z"/>
	<path class="st3" d="M775.3,804.8H410.4c-38.6,0-70-31.4-70-70V431.7c0-16.6-13.4-30-30-30s-30,13.4-30,30v303.1
		c0.1,71.8,58.2,129.9,130,130h64.4c-7.6,14.9-11.8,31.7-11.9,49.6c0,60.5,49,109.6,109.6,109.6c29.1,0.1,57-11.5,77.5-32.1
		c20.6-20.6,32.1-48.4,32.1-77.5c0-17.9-4.3-34.7-11.9-49.6h105.1c16.6,0,30-13.4,30-30S791.9,804.8,775.3,804.8z M572.6,964
		c-27.4,0-49.6-22.2-49.6-49.5c0-27.4,22.2-49.6,49.5-49.6v0c13.2,0,25.8,5.2,35.1,14.5c9.3,9.3,14.5,21.9,14.5,35
		C622.1,941.8,600,964,572.6,964z"/>
	<path class="st4" d="M914.5,341.8c-17.9,0-34.8,4.3-49.7,11.9V249.4c0-16.6-13.4-30-30-30s-30,13.4-30,30v364.2
		c0,38.6-31.4,70-70,70H431.3c-16.6,0-30,13.4-30,30s13.4,30,30,30h303.5c71.8-0.1,129.9-58.2,130-130v-64.5
		c14.9,7.6,31.8,11.9,49.6,11.9c29.1,0.1,57-11.5,77.5-32.1c20.5-20.5,32.1-48.4,32.1-77.5C1024.1,390.9,975.1,341.8,914.5,341.8z
		 M949.5,486.5c-9.3,9.3-21.9,14.5-35.1,14.5c-27.4,0-49.6-22.2-49.6-49.6s22.2-49.6,49.6-49.6c13.2,0,25.8,5.2,35.1,14.5
		C968.9,435.7,968.9,467.1,949.5,486.5z"/>
</g>
</svg>
