<?xml version="1.0" encoding="utf-8"?>
<!-- Generator: Adobe Illustrator 27.5.0, SVG Export Plug-In . SVG Version: 6.00 Build 0)  -->
<svg version="1.1" id="Layer_1" xmlns="http://www.w3.org/2000/svg" xmlns:xlink="http://www.w3.org/1999/xlink" x="0px" y="0px"
	 viewBox="0 0 1024 1024" style="enable-background:new 0 0 1024 1024;" xml:space="preserve">
<style type="text/css">
	.st0{fill:none;}
	.st1{fill:#E42527;}
	.st2{fill:#226DB4;}
</style>
<path class="st0" d="M448.1,241v241h127.8V242.6c-0.4-7.8,2.1-15.7,7.8-21.9c6.4-6.9,15.2-10.2,24-9.7h134.7v-61
	c0-49.6-40.4-90-90-90H371.7c-49.6,0-90,40.4-90,90v61h136.4C434.7,211,448.1,224.4,448.1,241z"/>
<path class="st0" d="M237,639.3c-9.3-5.4-15-15.3-15-26V393.1c0-8.4,3.5-16.4,9.7-22.1l109.2-100H180c-66.2,0-120,53.8-120,120v453
	c0,66.2,53.8,120,120,120h208.1V726.5L237,639.3z"/>
<path class="st0" d="M590.9,683.2L742,596V406.3l-106.1-97.1V512c0,16.6-13.4,30-30,30H418.1c-16.6,0-30-13.4-30-30V309.2L282,406.3
	V596l151.1,87.2c9.3,5.4,15,15.3,15,26V964h127.8V709.2C575.9,698.5,581.6,688.6,590.9,683.2z"/>
<path class="st0" d="M844,271H683.1l109.2,100c6.2,5.7,9.7,13.7,9.7,22.1v220.2c0,10.7-5.7,20.6-15,26l-151.1,87.2V964H844
	c66.2,0,120-53.8,120-120V391C964,324.8,910.2,271,844,271z"/>
<path class="st1" d="M583.7,220.7c-5.7,6.2-8.2,14.1-7.8,21.9V241c0-16.6,13.4-30,30-30h1.8C598.9,210.5,590.1,213.8,583.7,220.7z"
	/>
<path class="st1" d="M433.1,683.2L282,596V406.3l106.1-97.1V271h-47.2L231.7,371c-6.2,5.7-9.7,13.7-9.7,22.1v220.2
	c0,10.7,5.7,20.6,15,26l151.1,87.2V964h60V709.2C448.1,698.5,442.4,688.6,433.1,683.2z"/>
<path class="st1" d="M787,639.3c9.3-5.4,15-15.3,15-26V393.1c0-8.4-3.5-16.4-9.7-22.1L683.1,271h-47.2v38.2L742,406.3V596
	l-151.1,87.2c-9.3,5.4-15,15.3-15,26V964h60V726.5L787,639.3z"/>
<path class="st2" d="M844,211h-41.6v-61c0-82.7-67.3-150-150-150H371.7c-82.7,0-150,67.3-150,150v61H180C80.7,211,0,291.7,0,391v453
	c0,99.3,80.7,180,180,180h238.1h187.8H844c99.3,0,180-80.7,180-180V391C1024,291.7,943.3,211,844,211z M281.7,150
	c0-49.6,40.4-90,90-90h280.7c49.6,0,90,40.4,90,90v61H607.7h-1.8c-16.6,0-30,13.4-30,30v1.6V482H448.1V241c0-16.6-13.4-30-30-30
	H281.7V150z M964,844c0,66.2-53.8,120-120,120H635.9h-60H448.1h-60H180c-66.2,0-120-53.8-120-120V391c0-66.2,53.8-120,120-120h160.9
	h47.2v38.2V512c0,16.6,13.4,30,30,30h187.8c16.6,0,30-13.4,30-30V309.2V271h47.2H844c66.2,0,120,53.8,120,120V844z"/>
</svg>
